<svg width="35" height="35" enable-background="new 104.5 32.461 115.039 115.039" version="1.1" viewBox="104.5 32.461 115.039 115.039" xml:space="preserve" xmlns="http://www.w3.org/2000/svg">
                <linearGradient id="a" x1="86.767" x2="86.767" y1="229.25" y2="194.09" gradientTransform="matrix(3.75 0 0 3.75 -163.38 -704.88)" gradientUnits="userSpaceOnUse">
                <stop stop-color="#FFD879" offset=".0969"></stop>
                <stop stop-color="#FCCB76" offset=".1539"></stop>
                <stop stop-color="#F5AA6C" offset=".2583"></stop>
                <stop stop-color="#E9755E" offset=".3976"></stop>
                <stop stop-color="#E45F58" offset=".449"></stop>
                <stop stop-color="#D22A9C" offset=".6786"></stop>
                <stop stop-color="#6968DF" offset="1"></stop>
            </linearGradient>
            <circle cx="162" cy="90" r="57.539" fill="url(#a)"></circle>
                <path d="m162 103.93c-7.683 0-13.933-6.251-13.933-13.934s6.25-13.931 13.933-13.931 13.934 6.248 13.934 13.931-6.251 13.934-13.934 13.934zm0-24.115c-5.614 0-10.183 4.566-10.183 10.181s4.569 10.184 10.183 10.184c5.616 0 10.184-4.569 10.184-10.184s-4.569-10.181-10.184-10.181z" fill="#fff"></path>
            <circle cx="177.93" cy="74.591" r="1.733" fill="#fff"></circle>
                <path d="m173.99 117.24h-23.983c-8.41 0-15.251-6.841-15.251-15.249v-23.983c0-8.412 6.841-15.252 15.251-15.252h23.983c8.41 0 15.251 6.841 15.251 15.252v23.983c0 8.408-6.841 15.249-15.251 15.249zm-23.983-50.735c-6.341 0-11.501 5.16-11.501 11.502v23.983c0 6.339 5.16 11.499 11.501 11.499h23.983c6.341 0 11.501-5.16 11.501-11.499v-23.982c0-6.343-5.16-11.502-11.501-11.502h-23.983z" fill="#fff"></path>
</svg>