<svg id="svg2" xmlns="http://www.w3.org/2000/svg" viewBox="0 0 50 50" width="35" height="35"><defs><style>.cls-3{fill:#cc181e;}.cls-4{fill:#fff;}</style></defs><title>youtube</title><g id="layer1"><path id="rect2990-1" class="cls-3" d="M25,0h0A25,25,0,0,1,50,25h0A25,25,0,0,1,25,50h0A25,25,0,0,1,0,25H0A25,25,0,0,1,25,0Z"></path><path id="rect2989-7" class="cls-4" d="M16.41,9c0.38,1.12.78,2.23,1.16,3.35a29.6,29.6,0,0,1,1.1,3.8V21h1.8V16.15L22.63,9H20.81l-1.23,4.72L18.31,9H16.41ZM25,12a2.21,2.21,0,0,0-1.89.92A3.48,3.48,0,0,0,22.65,15v3.13a3.47,3.47,0,0,0,.51,2.11,2.41,2.41,0,0,0,3.78,0,3.51,3.51,0,0,0,.5-2.11V15a3.54,3.54,0,0,0-.5-2.11A2.21,2.21,0,0,0,25,12h0Zm3.73,0.11v7.08a4.53,4.53,0,0,0,.15,1.33,1,1,0,0,0,1,.67A2.61,2.61,0,0,0,31.82,20v1h1.62v-9H31.82v6.84a1.42,1.42,0,0,1-1,.76,0.37,0.37,0,0,1-.38-0.38,3.67,3.67,0,0,1,0-.63V12.06H28.77ZM25,13.41c0.52,0,.77.41,0.77,1.24v3.77c0,0.83-.25,1.24-0.77,1.24s-0.77-.41-0.77-1.24V14.66c0-.83.25-1.24,0.77-1.24h0Zm-0.65,9.07a84.25,84.25,0,0,0-9.34.37,3.36,3.36,0,0,0-2.87,2.61,28.5,28.5,0,0,0-.47,6.28v0.15A27.79,27.79,0,0,0,12.18,38a3.36,3.36,0,0,0,2.87,2.61A84.19,84.19,0,0,0,24.4,41h1.2a84.14,84.14,0,0,0,9.35-.37A3.36,3.36,0,0,0,37.82,38a28.06,28.06,0,0,0,.46-6.19V31.74a28.74,28.74,0,0,0-.46-6.28A3.36,3.36,0,0,0,35,22.85a84.25,84.25,0,0,0-9.34-.37H24.39ZM13.7,25.79h5.6v1.67H17.37V37.68H15.59V27.46H13.7V25.79Zm11.84,0h1.61v3.88a2.18,2.18,0,0,1,1.66-1,1.27,1.27,0,0,1,1.28,1,6.89,6.89,0,0,1,.16,1.78V35a7.15,7.15,0,0,1-.16,1.79,1.27,1.27,0,0,1-1.28,1,2.19,2.19,0,0,1-1.66-1v0.86H25.54V25.79h0Zm8.38,2.92a2.24,2.24,0,0,1,1.9.91,3.48,3.48,0,0,1,.5,2.09v1.83H33.1v1.57c0,0.82.27,1.23,0.82,1.23a0.69,0.69,0,0,0,.72-0.65,10.56,10.56,0,0,0,0-1.09H36.3v0.24c0,0.52,0,.87,0,1a2.26,2.26,0,0,1-.37,1,2.22,2.22,0,0,1-1.94,1A2.29,2.29,0,0,1,32,36.89a3.42,3.42,0,0,1-.51-2.08V31.7a3.45,3.45,0,0,1,.5-2.09,2.28,2.28,0,0,1,1.92-.91h0Zm-14.38.11h1.6v6.52a4.78,4.78,0,0,0,0,.62,0.37,0.37,0,0,0,.38.37,1.4,1.4,0,0,0,1-.75V28.82h1.61v8.86h-1.6v-1a2.57,2.57,0,0,1-1.83,1.09,1,1,0,0,1-1-.66,4.55,4.55,0,0,1-.14-1.32v-7h0Zm8.41,1.34a1.15,1.15,0,0,0-.8.39v5.4a1.15,1.15,0,0,0,.8.4c0.46,0,.7-0.39.7-1.19V31.36c0-.8-0.24-1.21-0.7-1.21h0Zm6,0c-0.54,0-.81.41-0.81,1.23V32.2h1.6V31.38q0-1.23-.8-1.23h0Z"></path></g></svg>